<svg xmlns="http://www.w3.org/2000/svg" viewBox="0 0 58 38.77"><defs><style>.cls-1{fill:#353534;}.cls-1,.cls-2,.cls-3{fill-rule:evenodd;}.cls-2{fill:#4e4854;}.cls-3{fill:#787574;}</style></defs><g id="Calque_2" data-name="Calque 2"><g id="_20" data-name="20"><path class="cls-1" d="M56.19,29.7,32.68,7.22a5.4,5.4,0,0,0-7.36,0L1.82,29.7c-2.11,2-2.55,4.87-.44,6.8l.87.93C4.1,39,6.37,39.35,8,37.59c5.79-5.53,11.67-11,17.45-16.52a5.13,5.13,0,0,1,7.28,0c5.79,5.53,11.58,11,17.28,16.52,1.75,1.76,3.94,1.43,5.87-.16l.79-.93c2.11-1.93,1.67-4.78-.43-6.8Z"/><path class="cls-2" d="M54.48,24.73,32.32,2.57a4.94,4.94,0,0,0-6.94,0L3.22,24.73c-2,2-2.4,4.8-.41,6.7l.82.91c1.74,1.57,3.89,1.9,5.38.16,5.45-5.45,11-10.83,16.45-16.28a4.69,4.69,0,0,1,6.86,0c5.46,5.45,10.92,10.83,16.29,16.28,1.66,1.74,3.72,1.41,5.54-.16l.74-.91c2-1.9,1.58-4.72-.41-6.7Z"/><path class="cls-3" d="M54.46,23.58,32.31,1.43a4.93,4.93,0,0,0-7,0L3.2,23.58c-2,2-2.4,4.8-.41,6.7l.83.91c1.73,1.57,3.88,1.9,5.37.17,5.46-5.46,11-10.84,16.45-16.29a4.7,4.7,0,0,1,6.87,0c5.45,5.45,10.91,10.83,16.28,16.29,1.66,1.73,3.72,1.4,5.54-.17l.75-.91c2-1.9,1.57-4.71-.42-6.7Z"/></g></g></svg>