<svg xmlns="http://www.w3.org/2000/svg" xmlns:xlink="http://www.w3.org/1999/xlink" viewBox="0 0 92.62 92.62"><defs><style>.cls-1,.cls-2{fill:none;stroke-miterlimit:10;}.cls-1{stroke:url(#linear-gradient);}.cls-2{stroke-width:3px;stroke:url(#linear-gradient-2);}.cls-3{fill:#41383c;}.cls-4{fill:url(#linear-gradient-3);}.cls-5{fill:url(#linear-gradient-4);}</style><linearGradient id="linear-gradient" x1="25.2" y1="6.21" x2="67.42" y2="86.41" gradientTransform="translate(84.23 -7.09) rotate(80.38)" gradientUnits="userSpaceOnUse"><stop offset="0" stop-color="#ffd03b"/><stop offset="1" stop-color="#ef5d84"/></linearGradient><linearGradient id="linear-gradient-2" x1="24.73" y1="5.32" x2="67.88" y2="87.29" xlink:href="#linear-gradient"/><linearGradient id="linear-gradient-3" x1="36.18" y1="21.57" x2="70.48" y2="70.14" gradientTransform="matrix(1, 0, 0, 1, 0, 0)" xlink:href="#linear-gradient"/><linearGradient id="linear-gradient-4" x1="30.1" y1="25.86" x2="64.41" y2="74.43" gradientTransform="matrix(1, 0, 0, 1, 0, 0)" xlink:href="#linear-gradient"/></defs><g id="Calque_2" data-name="Calque 2"><g id="OBJECTS"><circle class="cls-1" cx="46.31" cy="46.31" r="44.81" transform="translate(-7.09 84.23) rotate(-80.38)"/><circle class="cls-2" cx="46.31" cy="46.31" r="44.81" transform="translate(-7.09 84.23) rotate(-80.38)"/><circle class="cls-3" cx="46.31" cy="46.31" r="36.32"/><path class="cls-4" d="M62.28,35.94a4.16,4.16,0,0,0-3.1-1.43H32.71a4.11,4.11,0,0,0-2.63,1L46.39,51.83Z"/><path class="cls-5" d="M47.25,54.41a1.21,1.21,0,0,1-1.72,0L28.73,37.62a4.05,4.05,0,0,0-.22,1.1V56.79A4.21,4.21,0,0,0,32.71,61H59.18a4.21,4.21,0,0,0,4.2-4.21V38.72c0-.13-.06-.24-.07-.37Z"/></g></g></svg>