<svg xmlns="http://www.w3.org/2000/svg" xmlns:xlink="http://www.w3.org/1999/xlink" viewBox="0 0 92.62 92.62"><defs><style>.cls-1{fill:none;stroke-miterlimit:10;stroke-width:3px;stroke:url(#linear-gradient);}.cls-2{fill:#41383c;}.cls-3{fill:url(#linear-gradient-2);}</style><linearGradient id="linear-gradient" x1="24.73" y1="5.32" x2="67.88" y2="87.29" gradientUnits="userSpaceOnUse"><stop offset="0" stop-color="#a689ff"/><stop offset="1" stop-color="#73f9d8"/></linearGradient><linearGradient id="linear-gradient-2" x1="26.95" y1="20.58" x2="62.2" y2="75.24" xlink:href="#linear-gradient"/></defs><g id="Calque_2" data-name="Calque 2"><g id="OBJECTS"><circle class="cls-1" cx="46.31" cy="46.31" r="44.81"/><circle class="cls-2" cx="46.31" cy="46.31" r="36.32"/><path class="cls-3" d="M60.85,55.53l-4.94-4.94a2.56,2.56,0,0,0-3.63.06l-2.49,2.49-.5-.27A23.45,23.45,0,0,1,39,42.54l-.26-.48,1.67-1.67.82-.82a2.58,2.58,0,0,0,.07-3.64L36.31,31a2.57,2.57,0,0,0-3.63.07l-1.39,1.4,0,0a8.23,8.23,0,0,0-1.65,4.07C29,42,31.49,46.93,38.2,53.64c9.27,9.27,16.75,8.57,17.07,8.54a8.09,8.09,0,0,0,2.06-.52,7.86,7.86,0,0,0,2-1.14l0,0,1.41-1.38A2.58,2.58,0,0,0,60.85,55.53Z"/></g></g></svg>